<svg width="19" height="20" viewBox="0 0 19 20" fill="none" xmlns="http://www.w3.org/2000/svg">
<g clip-path="url(#clip0_50_205)">
<path fill-rule="evenodd" clip-rule="evenodd" d="M9.41278 17.1367C8.11591 17.1367 6.84637 16.7891 5.74091 16.1328L5.47919 15.9766L2.75262 16.6914L3.47919 14.0312L3.30731 13.7578C2.58466 12.6094 2.20575 11.2852 2.20575 9.92188C2.20575 5.94922 5.44012 2.71484 9.41669 2.71484C11.3425 2.71484 13.1511 3.46484 14.5104 4.82812C15.8698 6.19141 16.7057 8 16.7018 9.92578C16.7018 13.9023 13.3854 17.1367 9.41278 17.1367ZM11.8854 11.0352C12.0847 11.1055 13.1511 11.6289 13.3659 11.7383C13.5807 11.8438 13.7253 11.8984 13.7761 11.9961C13.8307 12.0859 13.8307 12.5195 13.6511 13.0273C13.4714 13.5352 12.6081 13.9961 12.1901 14.0586C11.5026 14.1602 10.9636 14.1094 9.58856 13.5156C7.41278 12.5742 5.99481 10.3867 5.88544 10.2422C5.77997 10.0977 5.00262 9.06641 5.00262 8C5.00262 6.93359 5.56122 6.41016 5.76044 6.19141C5.95966 5.97656 6.19403 5.92188 6.33856 5.92188C6.48309 5.92188 6.62762 5.92188 6.75262 5.92969C6.88544 5.9375 7.06512 5.87891 7.24091 6.30078C7.42059 6.73438 7.85419 7.80078 7.90887 7.91016C7.96356 8.01953 7.99872 8.14453 7.92841 8.28906C7.51434 9.11719 7.06903 9.08984 7.29169 9.47266C8.13153 10.9141 8.96747 11.4141 10.2409 12.0508C10.4557 12.1602 10.5847 12.1406 10.7097 11.9961C10.8386 11.8477 11.2526 11.3633 11.3972 11.1445C11.5417 10.9258 11.6862 10.9609 11.8854 11.0352Z" fill="#EEEEEE"/>
<path fill-rule="evenodd" clip-rule="evenodd" d="M9.41278 1.25C11.7292 1.25 13.9089 2.15234 15.5456 3.79297C17.1823 5.43359 18.1667 7.60938 18.1667 9.92578C18.1667 14.707 14.1901 18.5977 9.41278 18.5977H9.40887C7.95575 18.5977 6.52997 18.2344 5.26434 17.543L0.666687 18.75L1.89716 14.2578C1.13934 12.9414 0.740906 11.4492 0.740906 9.92188C0.740906 5.14062 4.63153 1.25 9.41278 1.25ZM5.74091 16.1328C6.84637 16.7891 8.11591 17.1367 9.41278 17.1367C13.3854 17.1367 16.7018 13.9023 16.7018 9.92578C16.7057 8 15.8698 6.19141 14.5104 4.82812C13.1511 3.46484 11.3425 2.71484 9.41669 2.71484C5.44012 2.71484 2.20575 5.94922 2.20575 9.92188C2.20575 11.2852 2.58466 12.6094 3.30731 13.7578L3.47919 14.0312L2.75262 16.6914L5.47919 15.9766L5.74091 16.1328Z" fill="#EEEEEE"/>
</g>
<defs>
<clipPath id="clip0_50_205">
<rect width="17.5" height="20" fill="white" transform="translate(0.666687)"/>
</clipPath>
</defs>
</svg>
