<svg width="18" height="20" viewBox="0 0 18 20" fill="none" xmlns="http://www.w3.org/2000/svg">
<g clip-path="url(#clip0_50_201)">
<path d="M1.56339 2.48008C0.333313 3.71023 0.333313 5.69031 0.333313 9.65V10.35C0.333313 14.3097 0.333313 16.2898 1.56339 17.5199C2.79355 18.75 4.77363 18.75 8.73331 18.75H9.43331C13.393 18.75 15.3731 18.75 16.6032 17.5199C17.8333 16.2898 17.8333 14.3097 17.8333 10.35V9.65C17.8333 5.69027 17.8333 3.7102 16.6032 2.48008C15.3731 1.25 13.393 1.25 9.43331 1.25H8.73331C4.77359 1.25 2.79351 1.25 1.56339 2.48008ZM3.28644 6.57297H5.28437C5.34999 9.91254 6.82288 11.3271 7.98956 11.6188V6.57293H9.87081V9.45312C11.0229 9.32918 12.2333 8.01668 12.6416 6.57293H14.5229C14.369 7.32168 14.0622 8.03063 13.6219 8.65544C13.1815 9.28026 12.6169 9.80749 11.9635 10.2042C12.6931 10.5664 13.3375 11.0793 13.8541 11.709C14.3707 12.3388 14.7478 13.071 14.9604 13.8573H12.8896C12.6987 13.1743 12.3104 12.5629 11.7734 12.0998C11.2363 11.6367 10.5744 11.3425 9.87081 11.2542V13.8573H9.64476C5.65624 13.8573 3.38124 11.1229 3.28644 6.57293V6.57297Z" fill="#EEEEEE"/>
</g>
<defs>
<clipPath id="clip0_50_201">
<rect width="17.5" height="20" fill="white" transform="translate(0.333313)"/>
</clipPath>
</defs>
</svg>
