<svg width="150" height="50" viewBox="0 0 150 50" fill="none" xmlns="http://www.w3.org/2000/svg">
<g clip-path="url(#clip0_29_1973)">
<rect width="150" height="50" rx="5" fill="#EEEEEE"/>
<path d="M132.935 -24.3462L90.2038 -11.2731C85.0269 -9.79619 80.8308 -4.39619 80.8308 0.780729V45.8538C80.8308 45.8538 77.7346 43.7653 70.8385 44.7423C60.7115 46.1807 52.5 53.9538 52.5 62.1077C52.5 70.2615 60.7115 75.2577 70.8385 73.8192C80.9731 72.3884 88.4 64.8538 88.4 56.6961V18.2115C88.4 14.5961 92.7461 13.0461 92.7461 13.0461L130.527 1.20381C130.527 1.20381 134.708 -0.200041 134.708 3.66919V34.5807C134.708 34.5807 130.858 32.3653 123.962 33.2038C113.835 34.4307 105.623 42.0423 105.623 50.1923C105.623 58.35 113.835 63.5115 123.962 62.2807C134.096 61.0538 142.308 53.4461 142.308 45.2884V-17.6462C142.308 -22.8231 138.108 -25.8231 132.935 -24.3462Z" fill="#29772C"/>
<path d="M24.76 40.52C23.64 40.52 23.08 39.8667 23.08 38.56V17.68H15.4C14.4933 17.68 13.8867 17.7933 13.58 18.02C13.2733 18.2333 13.12 18.6667 13.12 19.32V34.68C13.12 35.9867 12.9333 37.0533 12.56 37.88C12.2 38.6933 11.62 39.2933 10.82 39.68C10.0333 40.0533 9 40.24 7.72 40.24C6.33333 40.24 5.64 39.68 5.64 38.56C5.64 37.44 6.33333 36.88 7.72 36.88C8.36 36.88 8.78 36.78 8.98 36.58C9.18 36.3667 9.28 35.9333 9.28 35.28V19.88C9.28 18.4667 9.46 17.36 9.82 16.56C10.18 15.7467 10.78 15.1733 11.62 14.84C12.4733 14.4933 13.64 14.32 15.12 14.32H26.44V38.56C26.44 39.8667 25.88 40.52 24.76 40.52ZM38.4094 40.52C37.2894 40.52 36.7294 39.88 36.7294 38.6V16C36.7294 14.6933 37.2627 14.04 38.3294 14.04C38.9827 14.04 39.556 14.38 40.0494 15.06L47.4494 25.42L54.8894 15.06C55.3694 14.38 55.9294 14.04 56.5694 14.04C57.6627 14.04 58.2094 14.6933 58.2094 16V38.6C58.2094 39.88 57.6494 40.52 56.5294 40.52C55.4094 40.52 54.8494 39.84 54.8494 38.48V19.84L48.9094 28.28C48.6827 28.6133 48.4627 28.8333 48.2494 28.94C48.036 29.0333 47.7827 29.08 47.4894 29.08C47.1827 29.08 46.916 29.0333 46.6894 28.94C46.476 28.8333 46.256 28.6133 46.0294 28.28L40.0894 19.84V38.48C40.0894 39.84 39.5294 40.52 38.4094 40.52Z" fill="#29772C"/>
</g>
<defs>
<clipPath id="clip0_29_1973">
<rect width="150" height="50" rx="5" fill="white"/>
</clipPath>
</defs>
</svg>
