<svg width="100" height="100" viewBox="0 0 100 100" fill="none" xmlns="http://www.w3.org/2000/svg">
<g clip-path="url(#clip0_29_1398)">
<rect width="100" height="100" rx="5" fill="#EEEEEE"/>
<path d="M110 88L5 88" stroke="#CCCCCC" stroke-opacity="0.2" stroke-width="2" stroke-linecap="round"/>
<path d="M110 61L34 61" stroke="#CCCCCC" stroke-opacity="0.2" stroke-width="2" stroke-linecap="round"/>
<path d="M86.3477 40.5231L52.1631 50.9816C48.0215 52.1631 44.6646 56.4831 44.6646 60.6246V96.6831C44.6646 96.6831 42.1877 95.0123 36.6708 95.7939C28.5692 96.9446 22 103.163 22 109.686C22 116.209 28.5692 120.206 36.6708 119.055C44.7785 117.911 50.72 111.883 50.72 105.357V74.5692C50.72 71.6769 54.1969 70.4369 54.1969 70.4369L84.4215 60.9631C84.4215 60.9631 87.7661 59.84 87.7661 62.9354V87.6646C87.7661 87.6646 84.6861 85.8923 79.1692 86.5631C71.0677 87.5446 64.4985 93.6339 64.4985 100.154C64.4985 106.68 71.0677 110.809 79.1692 109.825C87.2769 108.843 93.8461 102.757 93.8461 96.2308V45.8831C93.8461 41.7416 90.4861 39.3416 86.3477 40.5231Z" fill="#29772C"/>
<path d="M24.76 35.52C23.64 35.52 23.08 34.8667 23.08 33.56V12.68H15.4C14.4933 12.68 13.8867 12.7933 13.58 13.02C13.2733 13.2333 13.12 13.6667 13.12 14.32V29.68C13.12 30.9867 12.9333 32.0533 12.56 32.88C12.2 33.6933 11.62 34.2933 10.82 34.68C10.0333 35.0533 9 35.24 7.72 35.24C6.33333 35.24 5.64 34.68 5.64 33.56C5.64 32.44 6.33333 31.88 7.72 31.88C8.36 31.88 8.78 31.78 8.98 31.58C9.18 31.3667 9.28 30.9333 9.28 30.28V14.88C9.28 13.4667 9.46 12.36 9.82 11.56C10.18 10.7467 10.78 10.1733 11.62 9.84C12.4733 9.49333 13.64 9.32 15.12 9.32H26.44V33.56C26.44 34.8667 25.88 35.52 24.76 35.52ZM38.4094 35.52C37.2894 35.52 36.7294 34.88 36.7294 33.6V11C36.7294 9.69333 37.2627 9.04 38.3294 9.04C38.9827 9.04 39.556 9.38 40.0494 10.06L47.4494 20.42L54.8894 10.06C55.3694 9.38 55.9294 9.04 56.5694 9.04C57.6627 9.04 58.2094 9.69333 58.2094 11V33.6C58.2094 34.88 57.6494 35.52 56.5294 35.52C55.4094 35.52 54.8494 34.84 54.8494 33.48V14.84L48.9094 23.28C48.6827 23.6133 48.4627 23.8333 48.2494 23.94C48.036 24.0333 47.7827 24.08 47.4894 24.08C47.1827 24.08 46.916 24.0333 46.6894 23.94C46.476 23.8333 46.256 23.6133 46.0294 23.28L40.0894 14.84V33.48C40.0894 34.84 39.5294 35.52 38.4094 35.52Z" fill="#29772C"/>
</g>
<defs>
<clipPath id="clip0_29_1398">
<rect width="100" height="100" rx="5" fill="white"/>
</clipPath>
</defs>
</svg>
