<svg width="20" height="20" viewBox="0 0 20 20" fill="none" xmlns="http://www.w3.org/2000/svg">
<g clip-path="url(#clip0_19_1158)">
<path d="M18.8223 0.763972C18.8124 0.566832 18.7272 0.381029 18.5841 0.245007C18.4411 0.108985 18.2512 0.0331536 18.0538 0.0332031H15.8623C15.6703 0.033192 15.4852 0.10501 15.3434 0.234541C15.2016 0.364072 15.1134 0.541947 15.0962 0.733203L13.8462 14.8217V9.2309H12.3077V6.9232C12.3071 6.78427 12.269 6.64808 12.1973 6.52904C12.1257 6.40999 12.0232 6.31253 11.9007 6.24695C11.7782 6.18138 11.6403 6.15012 11.5015 6.15651C11.3627 6.16289 11.2283 6.20666 11.1123 6.2832L6.69 9.2309H6.15385V6.9232C6.15326 6.78427 6.11513 6.64808 6.04349 6.52904C5.97185 6.40999 5.86937 6.31253 5.74689 6.24695C5.6244 6.18138 5.48647 6.15012 5.34768 6.15651C5.20889 6.16289 5.07441 6.20666 4.95846 6.2832L0.343077 9.36013C0.237614 9.43031 0.151116 9.52545 0.0912661 9.6371C0.0314157 9.74874 6.54621e-05 9.87345 0 10.0001L0 19.2309C0 19.4349 0.0810437 19.6306 0.225302 19.7748C0.369561 19.9191 0.565218 20.0001 0.769231 20.0001H19.2462C19.6715 20.0001 19.9762 19.7294 19.9762 19.3047C19.9762 19.2386 18.8223 0.763972 18.8223 0.763972ZM3.84615 10.7694V13.0771H2.30769V10.7694H3.84615ZM7.69231 10.7694V13.0771H6.15385V10.7694H7.69231ZM11.5385 10.7694V13.0771H10V10.7694H11.5385ZM3.84615 14.6155V16.9232H2.30769V14.6155H3.84615ZM7.69231 14.6155V16.9232H6.15385V14.6155H7.69231ZM11.5385 14.6155V16.9232H10V14.6155H11.5385Z" fill="#DDD62B"/>
</g>
<defs>
<clipPath id="clip0_19_1158">
<rect width="20" height="20" fill="white"/>
</clipPath>
</defs>
</svg>
