<svg width="20" height="20" viewBox="0 0 20 20" fill="none" xmlns="http://www.w3.org/2000/svg">
<g clip-path="url(#clip0_19_1162)">
<path d="M4.15846 2.30762C3.15846 2.30762 2.31538 2.97685 1.97154 3.89454V3.91762L0.0484615 9.75992L0 9.87992V14.6153C0 16.3076 1.38462 17.6922 3.07692 17.6922H16.9231C18.6154 17.6922 20 16.3076 20 14.6153V9.87992L19.9515 9.75992L17.9569 3.89377C17.6323 3.02916 16.8031 2.30762 15.7692 2.30762H4.15846ZM4.15846 3.84608H15.7692C16.12 3.84608 16.3769 4.05762 16.5146 4.423L18.4377 9.99993H12.3077C12.3077 11.3076 11.3077 12.3076 10 12.3076C8.69231 12.3076 7.69231 11.3076 7.69231 9.99993H1.56231L3.41308 4.423C3.53077 4.10992 3.92769 3.84608 4.15846 3.84608Z" fill="#DDD62B"/>
</g>
<defs>
<clipPath id="clip0_19_1162">
<rect width="20" height="20" fill="white"/>
</clipPath>
</defs>
</svg>
