<svg width="20" height="20" viewBox="0 0 20 20" fill="none" xmlns="http://www.w3.org/2000/svg">
<g clip-path="url(#clip0_19_1171)">
<path d="M0 3.07715V3.84638H6.15385V4.61561H1.53846V5.38484H0V6.15407H5.38462V6.9233H1.53846V7.69253H0V8.46176H4.61538V9.231H1.53846V10.0002H0V10.7695H3.84615V11.5387H1.53846V14.6156C1.53846 15.0771 1.84615 15.3848 2.30769 15.3848H3.07692C3.23077 14.0771 4.38462 13.0048 5.76923 13.0048C7.15385 13.0048 8.30769 14.0002 8.46154 15.3848H10.7692C11.2308 15.3848 11.5385 15.0771 11.5385 14.6156V3.84638C11.5385 3.38484 11.2308 3.07715 10.7692 3.07715H0ZM13.0769 6.15407C12.6154 6.15407 12.3077 6.46176 12.3077 6.9233V14.6156C12.3077 15.0002 12.6154 15.3848 13.0769 15.3848C13.2308 14.0771 14.3846 13.0048 15.7692 13.0048C17.1538 13.0048 18.3077 14.0002 18.4615 15.3848H19.2308C19.6923 15.3848 20 15.0771 20 14.6156V10.7695C20 10.0771 19.3746 9.231 19.3746 9.231L17.6923 6.9233C17.3077 6.46176 17.0769 6.15407 16.5385 6.15407H13.0769ZM14.6154 7.69253H16.4662C16.62 7.69253 16.7792 7.83715 16.7792 7.83715L18.3892 10.0725C18.5431 10.3033 18.7023 10.5433 18.7023 10.6971H14.6154V7.69253ZM5.76923 13.991C5.29798 13.9926 4.84648 14.1805 4.51319 14.5136C4.17989 14.8468 3.99182 15.2982 3.99 15.7695C3.99162 16.2408 4.1796 16.6925 4.51292 17.0258C4.84624 17.3591 5.29785 17.5471 5.76923 17.5487C6.24061 17.5471 6.69223 17.3591 7.02555 17.0258C7.35886 16.6925 7.54684 16.2408 7.54846 15.7695C7.54684 15.2981 7.35886 14.8465 7.02555 14.5131C6.69223 14.1798 6.24061 13.9926 5.76923 13.991ZM15.7692 13.991C15.298 13.9926 14.8465 14.1805 14.5132 14.5136C14.1799 14.8468 13.9918 15.2982 13.99 15.7695C13.9916 16.2408 14.1796 16.6925 14.5129 17.0258C14.8462 17.3591 15.2978 17.5471 15.7692 17.5487C16.2406 17.5471 16.6922 17.3591 17.0255 17.0258C17.3589 16.6925 17.5468 16.2408 17.5485 15.7695C17.5468 15.2981 17.3589 14.8465 17.0255 14.5131C16.6922 14.1798 16.2406 13.9926 15.7692 13.991Z" fill="#DDD62B"/>
</g>
<defs>
<clipPath id="clip0_19_1171">
<rect width="20" height="20" fill="white"/>
</clipPath>
</defs>
</svg>
