<svg width="20" height="20" viewBox="0 0 20 20" fill="none" xmlns="http://www.w3.org/2000/svg">
<g clip-path="url(#clip0_19_1167)">
<path d="M9.99999 0V1.53846C5.34999 1.53846 1.53845 5.35 1.53845 10C1.53845 14.65 5.34999 18.4615 9.99999 18.4615C14.65 18.4615 18.4615 14.65 18.4615 10C18.4615 7.73308 17.6077 5.68462 16.0815 4.15846L15 5.24077C16.2438 6.48308 16.9231 8.11231 16.9231 10C16.9231 13.8115 13.8115 16.9231 9.99999 16.9231C6.18845 16.9231 3.07691 13.8115 3.07691 10C3.07691 6.18846 6.18845 3.07692 9.99999 3.07692V4.61539L13.8461 2.30769L9.99999 0ZM11.6108 5.04846L9.68768 8.89462C9.44528 8.9605 9.2314 9.10456 9.07924 9.30443C8.92708 9.5043 8.84514 9.7488 8.84614 10C8.84614 10.306 8.96771 10.5995 9.1841 10.8159C9.40049 11.0323 9.69397 11.1538 9.99999 11.1538H10.0485L12.5238 13.63L13.63 12.5238L11.1538 10.0485V10C11.1538 9.84846 11.1108 9.7 11.0577 9.56692L13.0046 5.72077L11.6108 5.04769V5.04846Z" fill="#DDD62B"/>
</g>
<defs>
<clipPath id="clip0_19_1167">
<rect width="20" height="20" fill="white"/>
</clipPath>
</defs>
</svg>
